# xmcd
#
# Track frame offsets:
# 150
# 15256
# 28487
# 43259
# 59013
# 71407
# 83447
# 102997
# 115586
# 133630
# 153016
# 171585
# 188895
#
# Disc length: 2811 seconds
#
#
# Revision: 0
# Processed by: cddbd v1.5.1PL0 Copyright (c) Steve Scherf et al.
# Submitted via: FreeRIP 2.93 
#
DISCID=a90af90d
DTITLE=JOÃO ALVES and HERMES - BRASA E FOGO
DYEAR=2005
DGENRE=Other
TTITLE0=BRASA E FOGO
TTITLE1=EU NÃO SOU ANALISTA
TTITLE2=TER CUIDADO COM VOCE
TTITLE3=TÁ MADURA OU TÁ DE VEZ
TTITLE4=AMOR VERDADEIRO
TTITLE5=BIRIMBIM BIRIM BIMBÁ
TTITLE6=DESCULPE,MAS EU VOU PARTIR E NÃO CHORAR
TTITLE7=CHÁ DE CAMA
TTITLE8=LEI DO CÃO
TTITLE9=PEDIDO
TTITLE10=IDAS E VOLTAS
TTITLE11=NOVO AMOR
TTITLE12=NÃO SE CULPE
EXTD=
EXTT0=
EXTT1=
EXTT2=
EXTT3=
EXTT4=
EXTT5=
EXTT6=
EXTT7=
EXTT8=
EXTT9=
EXTT10=
EXTT11=
EXTT12=
PLAYORDER=
